<svg width="96" height="96" viewBox="0 0 96 96" fill="none" xmlns="http://www.w3.org/2000/svg">
<rect x="4" y="4" width="88" height="88" rx="44" fill="#E9F5F7"/>
<rect x="4" y="4" width="88" height="88" rx="44" stroke="white" stroke-width="8"/>
<path opacity="0.5" d="M53.0003 50.2122C51.4563 49.8607 49.7685 49.667 48.0003 49.667C40.6365 49.667 34.667 53.0248 34.667 57.167C34.667 61.3092 34.667 64.667 48.0003 64.667C57.4793 64.667 60.2195 62.9698 61.0117 60.5003" stroke="#1C274C" stroke-width="2"/>
<path d="M59.0002 60.3333C62.6821 60.3333 65.6668 57.3486 65.6668 53.6667C65.6668 49.9848 62.6821 47 59.0002 47C55.3183 47 52.3335 49.9848 52.3335 53.6667C52.3335 57.3486 55.3183 60.3333 59.0002 60.3333Z" stroke="#1C274C" stroke-width="2" stroke-linecap="round"/>
<path d="M56.7778 53.667L58.167 55.3337L61.2223 52.1855" stroke="#1C274C" stroke-width="2" stroke-linecap="round"/>
<path d="M48.0002 44.6663C51.6821 44.6663 54.6668 41.6816 54.6668 37.9997C54.6668 34.3178 51.6821 31.333 48.0002 31.333C44.3183 31.333 41.3335 34.3178 41.3335 37.9997C41.3335 41.6816 44.3183 44.6663 48.0002 44.6663Z" stroke="#1C274C" stroke-width="2" stroke-linecap="round"/>
</svg>
