<svg width="16" height="17" viewBox="0 0 16 17" fill="none" xmlns="http://www.w3.org/2000/svg">
<g clip-path="url(#clip0_503_2390)">
<path d="M8.57756 2.5003L14.9282 13.5003C14.9867 13.6016 15.0175 13.7166 15.0175 13.8336C15.0175 13.9506 14.9867 14.0656 14.9282 14.167C14.8697 14.2683 14.7856 14.3525 14.6842 14.411C14.5829 14.4695 14.4679 14.5003 14.3509 14.5003H1.64956C1.53254 14.5003 1.41758 14.4695 1.31623 14.411C1.21489 14.3525 1.13073 14.2683 1.07222 14.167C1.01371 14.0656 0.982909 13.9506 0.98291 13.8336C0.982911 13.7166 1.01372 13.6016 1.07223 13.5003L7.42289 2.5003C7.48141 2.39896 7.56557 2.31481 7.66691 2.2563C7.76825 2.19779 7.88321 2.16699 8.00023 2.16699C8.11725 2.16699 8.2322 2.19779 8.33355 2.2563C8.43489 2.31481 8.51905 2.39896 8.57756 2.5003ZM2.80423 13.167H13.1962L8.00023 4.16696L2.80423 13.167ZM7.33356 11.167H8.66689V12.5003H7.33356V11.167ZM7.33356 6.5003H8.66689V9.83363H7.33356V6.5003Z" fill="#FF0000"/>
</g>
<defs>
<clipPath id="clip0_503_2390">
<rect width="16" height="16" fill="white" transform="translate(0 0.5)"/>
</clipPath>
</defs>
</svg>
