<svg width="109" height="48" viewBox="0 0 109 48" fill="none" xmlns="http://www.w3.org/2000/svg">
<g filter="url(#filter0_d_501_1837)">
<rect x="2.5" y="1" width="103.667" height="44" rx="8" fill="white"/>
<rect x="3" y="1.5" width="102.667" height="43" rx="7.5" stroke="#D0D5DD"/>
<path d="M63.1758 28.1447C62.8431 28.9133 62.4493 29.6208 61.993 30.2713C61.3711 31.158 60.8618 31.7719 60.4694 32.1127C59.861 32.6722 59.2092 32.9587 58.5112 32.975C58.0101 32.975 57.4058 32.8324 56.7023 32.5432C55.9966 32.2553 55.348 32.1127 54.755 32.1127C54.133 32.1127 53.466 32.2553 52.7525 32.5432C52.0379 32.8324 51.4623 32.9832 51.0222 32.9981C50.3528 33.0266 49.6856 32.7319 49.0197 32.1127C48.5946 31.742 48.063 31.1064 47.4261 30.2061C46.7428 29.2446 46.181 28.1297 45.7408 26.8587C45.2695 25.4857 45.0332 24.1563 45.0332 22.8692C45.0332 21.3948 45.3518 20.1232 45.9899 19.0576C46.4914 18.2017 47.1586 17.5265 47.9936 17.0308C48.8286 16.5351 49.7309 16.2826 50.7025 16.2664C51.2342 16.2664 51.9313 16.4309 52.7977 16.7541C53.6617 17.0783 54.2164 17.2428 54.4596 17.2428C54.6415 17.2428 55.2577 17.0505 56.3024 16.6671C57.2903 16.3116 58.1241 16.1644 58.8072 16.2224C60.6581 16.3718 62.0487 17.1014 62.9735 18.416C61.3181 19.419 60.4992 20.8238 60.5155 22.626C60.5305 24.0297 61.0397 25.1979 62.0406 26.1254C62.4941 26.5558 63.0007 26.8885 63.5642 27.1248C63.442 27.4793 63.313 27.8188 63.1758 28.1447ZM58.9308 11.4401C58.9308 12.5404 58.5288 13.5677 57.7276 14.5185C56.7607 15.6489 55.5912 16.3021 54.323 16.199C54.3069 16.067 54.2975 15.9281 54.2975 15.7821C54.2975 14.7259 54.7573 13.5955 55.5739 12.6713C55.9815 12.2033 56.5 11.8142 57.1287 11.5038C57.7561 11.1981 58.3496 11.029 58.9077 11C58.924 11.1471 58.9308 11.2942 58.9308 11.4401V11.4401Z" fill="black"/>
</g>
<defs>
<filter id="filter0_d_501_1837" x="0.5" y="0" width="107.667" height="48" filterUnits="userSpaceOnUse" color-interpolation-filters="sRGB">
<feFlood flood-opacity="0" result="BackgroundImageFix"/>
<feColorMatrix in="SourceAlpha" type="matrix" values="0 0 0 0 0 0 0 0 0 0 0 0 0 0 0 0 0 0 127 0" result="hardAlpha"/>
<feOffset dy="1"/>
<feGaussianBlur stdDeviation="1"/>
<feColorMatrix type="matrix" values="0 0 0 0 0.0627451 0 0 0 0 0.0941176 0 0 0 0 0.156863 0 0 0 0.05 0"/>
<feBlend mode="normal" in2="BackgroundImageFix" result="effect1_dropShadow_501_1837"/>
<feBlend mode="normal" in="SourceGraphic" in2="effect1_dropShadow_501_1837" result="shape"/>
</filter>
</defs>
</svg>
