<svg width="25" height="24" viewBox="0 0 25 24" fill="none" xmlns="http://www.w3.org/2000/svg">
<path d="M21.1758 17.1447C20.8431 17.9133 20.4493 18.6208 19.993 19.2713C19.3711 20.158 18.8618 20.7719 18.4694 21.1127C17.861 21.6722 17.2092 21.9587 16.5112 21.975C16.0101 21.975 15.4058 21.8324 14.7023 21.5432C13.9966 21.2553 13.348 21.1127 12.755 21.1127C12.133 21.1127 11.466 21.2553 10.7525 21.5432C10.0379 21.8324 9.46229 21.9832 9.02217 21.9981C8.35282 22.0266 7.68565 21.7319 7.01969 21.1127C6.59464 20.742 6.06299 20.1064 5.4261 19.2061C4.74277 18.2446 4.18097 17.1297 3.74085 15.8587C3.26949 14.4857 3.0332 13.1563 3.0332 11.8692C3.0332 10.3948 3.35179 9.12321 3.9899 8.0576C4.4914 7.20166 5.15858 6.52647 5.9936 6.03081C6.82862 5.53514 7.73087 5.28256 8.7025 5.2664C9.23415 5.2664 9.93134 5.43085 10.7977 5.75405C11.6617 6.07834 12.2164 6.24279 12.4596 6.24279C12.6415 6.24279 13.2577 6.0505 14.3024 5.66714C15.2903 5.31162 16.1241 5.16441 16.8072 5.2224C18.6581 5.37178 20.0487 6.10142 20.9735 7.41595C19.3181 8.41896 18.4992 9.82379 18.5155 11.626C18.5305 13.0297 19.0397 14.1979 20.0406 15.1254C20.4941 15.5558 21.0007 15.8885 21.5642 16.1248C21.442 16.4793 21.313 16.8188 21.1758 17.1447ZM16.9308 0.440125C16.9308 1.54038 16.5288 2.56768 15.7276 3.51854C14.7607 4.64892 13.5912 5.30211 12.323 5.19904C12.3069 5.06705 12.2975 4.92812 12.2975 4.78214C12.2975 3.7259 12.7573 2.59552 13.5739 1.67127C13.9815 1.20331 14.5 0.814209 15.1287 0.503814C15.7561 0.19805 16.3496 0.0289566 16.9077 0C16.924 0.147086 16.9308 0.294182 16.9308 0.440111V0.440125Z" fill="black"/>
</svg>
