<svg width="113" height="97" viewBox="0 0 113 97" fill="none" xmlns="http://www.w3.org/2000/svg">
<g clip-path="url(#clip0_501_1939)">
<path d="M66.3469 88.7162V88.4102H61.8469V88.7162C61.8469 88.7162 62.7519 88.7262 63.0649 89.2222V92.2162H59.5549V89.2222C59.5549 89.2222 59.7229 88.7772 60.7819 88.7222V88.4142H56.2849V88.7222C56.2849 88.7222 57.1869 88.7291 57.4989 89.2271V96.1861C57.1869 96.6841 56.2849 96.6912 56.2849 96.6912V96.9972H60.7819V96.6922C59.7219 96.6392 59.5559 96.1892 59.5559 96.1892V92.7712H63.0659V96.1812C62.7519 96.6822 61.8479 96.6861 61.8479 96.6861V96.9942H66.3479V96.6861C65.2849 96.6341 65.1199 96.1861 65.1199 96.1861V89.2182C65.1199 89.2182 65.2849 88.7732 66.3469 88.7162ZM58.1459 96.1822H57.8229V89.2662H58.1459V96.1822ZM63.7219 96.1802H63.4019V89.2642H63.7219V96.1802ZM84.8629 96.7212C84.764 96.6933 84.6695 96.6519 84.5819 96.5982C83.9419 96.2162 83.1899 95.2042 83.1899 95.2042C81.9279 93.2412 81.2259 92.8932 81.2259 92.8932C81.2259 92.8932 82.8859 92.4362 83.2359 91.2062C83.4689 90.6192 83.2049 89.8261 83.2049 89.8261C82.5819 88.3391 80.7469 88.4122 80.7469 88.4122H75.1309V88.7222C75.1309 88.7222 75.9669 88.7261 76.2539 89.2271V96.1861C75.9669 96.6841 75.1309 96.6912 75.1309 96.6912V96.9972H79.6929V96.6912C78.7169 96.6382 78.4359 96.1892 78.4359 96.1892V93.2561C78.5189 93.2401 79.3879 93.1042 80.5059 94.8922C80.5059 94.8922 81.8399 96.8682 82.1339 96.9742L84.1639 96.9872L85.1459 96.9952L84.8629 96.7212ZM81.9719 90.6212C81.9819 91.6132 81.0359 92.1312 80.9769 92.1612C81.0599 92.0772 82.5489 90.5891 80.9899 89.1041C81.0489 89.1301 81.9829 89.5812 81.9719 90.6212ZM77.0319 96.1812H76.7359V89.2632H77.0319V96.1812ZM78.4359 92.6362V89.2202C78.4359 89.2202 78.4159 89.1562 78.4459 89.0742L78.4549 89.0761C78.4549 89.0761 81.0529 88.5072 81.2829 90.3822C81.2829 90.3822 81.3209 90.8002 81.1729 91.2332C80.5549 92.7632 78.5429 92.6452 78.4359 92.6362ZM81.8259 96.1161C81.4419 95.6651 80.7279 94.5542 80.7279 94.5542C80.3679 93.9142 79.5529 93.2542 79.5529 93.2542L79.8929 93.2342C79.8929 93.2342 80.6699 93.8391 80.9929 94.4231C80.9929 94.4231 81.9129 95.8352 82.1729 96.1152L81.8259 96.1161ZM74.3699 94.5102C74.0619 95.8022 73.7749 96.0742 73.7749 96.0742C72.3409 96.6212 70.6949 96.3342 70.6949 96.3342C70.2049 96.3062 70.1149 95.8142 70.0979 95.6672V92.7472H71.9379C72.2019 92.7982 72.4639 94.0092 72.4939 94.1972H72.8609V90.7202H72.5019C72.4659 90.9402 72.2119 92.1122 71.9499 92.2182H70.0979V89.1462C70.3809 89.0832 72.1779 88.7282 73.4009 89.2462C73.4009 89.2462 73.7249 89.4731 74.0369 90.7701H74.3809L74.3979 88.4282L66.8199 88.4112V88.7172C66.8199 88.7172 67.5359 88.7272 67.7849 89.2222V96.1871C67.5359 96.6841 66.8199 96.6922 66.8199 96.6922V96.9982H74.6339L74.7209 94.4942L74.3689 94.5092L74.3699 94.5102ZM68.6529 96.1392H68.3979V89.2192H68.6529V96.1392Z" fill="white"/>
<path d="M93.227 95.9805L89.939 88.4105H86.813V88.7605C86.813 88.7605 87.791 88.7705 88.033 89.2555L85.438 96.0055C85.28 96.3765 84.889 96.5335 84.581 96.5995C84.348 96.6495 84.164 96.6465 84.164 96.6465V96.9985H87.394V96.6465C86.392 96.6315 86.192 96.1185 86.192 96.1185L86.872 94.3335H90.291L91.056 96.1505C90.889 96.5805 89.848 96.6465 89.848 96.6465L89.852 96.9985H94.509V96.6465C93.518 96.6565 93.227 95.9805 93.227 95.9805ZM87.083 93.7705L88.494 90.0495L90.057 93.7695L87.083 93.7705ZM91.394 96.1215L88.594 89.2515H88.87L91.744 96.1215H91.394ZM102.173 94.2305C101.925 95.5265 101.567 96.0645 101.567 96.0645C100.218 96.5395 98.54 96.3215 98.54 96.3215C98.127 96.2985 98.038 95.8105 98.027 95.6655V89.2415C98.175 89.0875 98.228 88.8065 99.231 88.7355V88.4105H94.741V88.7495C94.741 88.7495 95.729 88.8135 95.926 89.3155L95.911 96.1175C95.713 96.6175 94.741 96.6405 94.741 96.6405V96.9985H102.421L102.49 94.2075L102.173 94.2305ZM96.613 96.1765H96.343V89.2925H96.613V96.1765ZM112.056 90.8385C110.949 88.3285 108.038 88.4105 108.038 88.4105H102.798V88.7305C102.798 88.7305 103.844 88.7775 104.005 89.2905V96.1215C103.844 96.6315 102.798 96.6795 102.798 96.6795V96.9985H107.498C109.614 96.9565 111.372 95.9785 112.1 94.4225C112.861 92.6065 112.056 90.8385 112.056 90.8385ZM104.665 96.1485H104.34V89.2545H104.665V96.1485ZM106.951 96.4395C106.074 96.3715 106.061 95.8145 106.061 95.8145L106.057 89.0645C106.057 89.0645 106.588 88.9165 107.699 88.9485C107.699 88.9485 108.698 88.9105 109.353 89.7305C109.353 89.7305 109.98 90.5185 110.024 91.8085L110.051 92.6085C110.051 92.6085 110.092 94.1655 109.595 95.0155C108.854 96.5975 106.951 96.4395 106.951 96.4395ZM109.131 96.0445C109.207 96.0005 110.432 95.2565 110.474 92.6655C110.492 92.4146 110.489 92.1627 110.464 91.9125C110.419 91.4775 110.32 91.0795 110.32 91.0795C109.993 89.6025 109.19 89.1845 109.089 89.1365C110.181 89.4055 110.751 90.8115 110.814 92.2895C110.882 93.9375 110.317 95.6805 109.131 96.0445ZM9.50699 90.8475C8.43699 88.4215 5.62299 88.4975 5.62299 88.4975H0.562988V88.8095C0.562988 88.8095 1.57199 88.8555 1.72699 89.3535V95.9655C1.57199 96.4605 0.562988 96.5055 0.562988 96.5055V96.8175H5.10299C7.14799 96.7755 8.84899 95.8295 9.54999 94.3195C10.281 92.5625 9.50699 90.8475 9.50699 90.8475ZM2.36399 95.9945H2.04999V89.3205H2.36399V95.9945ZM4.57199 96.2745C3.72499 96.2085 3.71599 95.6685 3.71599 95.6685L3.70999 89.1325C3.70999 89.1325 4.22299 88.9895 5.29799 89.0205C5.29799 89.0205 6.26499 88.9865 6.89299 89.7755C6.89299 89.7755 7.50299 90.5415 7.54499 91.7905L7.56899 92.5665C7.56899 92.5665 7.60699 94.0725 7.12899 94.8935C6.41299 96.4275 4.57199 96.2745 4.57199 96.2745ZM6.67899 95.8895C6.75299 95.8475 7.93799 95.1295 7.97799 92.6175C7.99452 92.3749 7.99117 92.1314 7.96799 91.8895C7.92599 91.4675 7.82999 91.0855 7.82999 91.0855C7.49299 89.5585 6.63299 89.1995 6.63299 89.1995C7.69299 89.4565 8.24699 90.8215 8.30399 92.2565C8.37099 93.8515 7.82599 95.5375 6.67899 95.8895ZM17.45 94.4065C17.15 95.6565 16.87 95.9195 16.87 95.9195C15.482 96.4495 13.886 96.1725 13.886 96.1725C13.413 96.1465 13.328 95.6665 13.313 95.5265V92.7005H15.094C15.351 92.7475 15.601 93.9205 15.632 94.1035H15.987V90.7365H15.639C15.603 90.9515 15.359 92.0825 15.102 92.1855H13.312V89.2135C13.582 89.1535 15.324 88.8065 16.511 89.3045C16.511 89.3045 16.824 89.5295 17.122 90.7845H17.455L17.474 88.5155L10.137 88.5005V88.7955C10.137 88.7955 10.828 88.8055 11.067 89.2875V96.0295C10.828 96.5125 10.137 96.5195 10.137 96.5195V96.8165H17.704L17.787 94.3925L17.449 94.4055L17.45 94.4065ZM11.911 95.9865H11.664V89.2825H11.911V95.9865ZM42.768 95.8645L39.578 88.5375H36.538V88.8745C36.538 88.8745 37.486 88.8845 37.72 89.3575L35.201 95.8875C34.934 96.5195 33.963 96.5095 33.963 96.5095V96.8555H37.101V96.5095C36.128 96.4965 35.933 95.9995 35.933 95.9995L36.593 94.2715H39.917L40.656 96.0315C40.498 96.4465 39.486 96.5095 39.486 96.5095L39.488 96.8555H44.014V96.5095C43.053 96.5165 42.768 95.8645 42.768 95.8645ZM36.798 93.7295L38.174 90.1225L39.689 93.7295H36.8H36.798ZM40.988 96.0035L38.268 89.3475H38.536L41.326 96.0035H40.988ZM26.003 95.1925C23.913 96.9525 21.882 95.8105 21.882 95.8105C19.102 94.2405 19.994 88.3975 23.827 89.0255C23.827 89.0255 24.907 89.1125 25.037 89.6735L25.413 90.8175H25.738V88.8905C25.738 88.8905 24.154 88.1105 21.61 88.5435C19.563 88.9365 18.684 90.8495 18.684 90.8495C18.684 90.8495 18.332 91.4315 18.241 92.5865C18.241 92.5865 17.962 95.3285 20.541 96.5495C20.541 96.5495 21.996 97.3115 24.195 96.8575C24.195 96.8575 25.287 96.6595 26.29 95.5695L26.003 95.1925ZM18.819 94.2675C18.399 92.9145 18.701 91.7665 18.701 91.7665C19.193 89.7865 20.666 89.2125 20.76 89.1785C19.18 90.2395 18.963 91.8275 18.963 91.8275C18.963 91.8275 18.87 92.1795 18.87 93.0685C18.87 93.0685 18.824 95.2145 20.788 96.2755C19.337 95.7355 18.819 94.2675 18.819 94.2675Z" fill="white"/>
<path d="M33.9741 95.1921C31.8841 96.9521 29.8541 95.8101 29.8541 95.8101C27.0711 94.2401 27.9641 88.3971 31.7981 89.0251C31.7981 89.0251 32.8781 89.1121 33.0061 89.6731L33.3861 90.8171H33.7051V88.8901C33.7051 88.8901 32.1271 88.1101 29.5821 88.5431C27.5341 88.9361 26.6551 90.8491 26.6551 90.8491C26.6551 90.8491 26.3031 91.4311 26.2081 92.5861C26.2081 92.5861 25.9291 95.3281 28.5121 96.5491C28.5121 96.5491 29.9651 97.3111 32.1681 96.8571C32.1681 96.8571 33.2581 96.6591 34.2591 95.5691L33.9741 95.1921ZM26.7901 94.2671C26.3701 92.9141 26.6701 91.7661 26.6701 91.7661C27.1641 89.7861 28.6361 89.2121 28.7291 89.1781C27.1511 90.2391 26.9301 91.8271 26.9301 91.8271C26.9301 91.8271 26.8401 92.1791 26.8401 93.0681C26.8401 93.0681 26.7941 95.2141 28.7601 96.2751C27.3081 95.7351 26.7901 94.2671 26.7901 94.2671ZM50.6301 88.5371L50.6331 88.8931C51.5351 88.8981 51.8221 89.3851 51.8221 89.3851L51.8181 94.2201L47.4191 88.5371H44.2211V88.8791C44.2211 88.8791 45.0191 88.8621 45.3951 89.3661L45.4061 95.9881C45.1481 96.4691 44.2091 96.5111 44.2091 96.5111V96.8551H47.3091V96.5021C46.4091 96.4961 46.1201 96.0071 46.1201 96.0071L46.1241 90.1861L51.2711 96.8561H52.5471L52.5361 89.4051C52.7921 88.9221 53.7301 88.8801 53.7301 88.8801V88.5371H50.6301ZM51.0811 96.0091L45.9871 89.3691L46.3331 89.3751L51.4291 96.0161L51.0811 96.0091ZM51.6981 17.8171C45.5831 -0.283899 29.4941 0.292101 29.4941 0.292101H0.561059V2.6061C0.561059 2.6061 6.33306 2.9521 7.22606 6.6461V55.9501C6.33306 59.6431 0.560059 59.9871 0.560059 59.9871V62.3041H26.5131C38.2131 62.0041 47.9331 54.9241 51.9481 43.6921C56.1401 30.5991 51.6981 17.8171 51.6981 17.8171ZM10.8631 56.1701H9.07006V6.4061H10.8631V56.1701ZM23.4931 58.2601C18.6501 57.7721 18.5851 53.7521 18.5851 53.7521L18.5621 5.0151C18.5621 5.0151 21.4951 3.9521 27.6391 4.1751C27.6391 4.1751 33.1591 3.9051 36.7591 9.8131C36.7591 9.8131 40.2361 15.5301 40.4831 24.8311L40.6221 30.6141C40.6221 30.6141 40.8461 41.8311 38.1121 47.9721C34.0091 59.3981 23.4921 58.2591 23.4921 58.2591L23.4931 58.2601ZM35.5191 55.4301C35.5191 55.4301 42.7261 50.3351 42.9641 31.0171C43.0071 30.8311 43.0911 27.9571 42.9041 25.5761C42.7379 23.5619 42.4742 21.5568 42.1141 19.5681C40.2211 8.3681 35.4161 5.5911 35.2661 5.5071C41.3251 7.4251 44.4911 17.5951 44.8311 28.3041C45.2081 40.2171 42.0811 52.7971 35.5191 55.4301Z" fill="white"/>
<path d="M112.43 2.4298V0.216797H84.7681V2.4298C84.7681 2.4298 90.3361 2.4868 92.2511 6.0928V27.7498H70.6661V6.0958C70.6661 6.0958 71.6991 2.8578 78.2101 2.4608V0.243797H50.5481V2.4608C50.5481 2.4608 56.1161 2.5158 58.0311 6.1248V56.4798C56.1161 60.0888 50.5461 60.1438 50.5461 60.1438V62.3588H78.2101V60.1438C71.7001 59.7438 70.6661 56.5088 70.6661 56.5088V31.7638H92.2511V56.4508C90.3361 60.0578 84.7681 60.1128 84.7681 60.1128V62.3298H112.43V60.1128C105.921 59.7178 104.888 56.4808 104.888 56.4808V6.0638C104.889 6.0638 105.922 2.8248 112.43 2.4298ZM62.0111 56.4598H60.0251V6.4058H62.0111V56.4598ZM96.3041 56.4328H94.3171V6.3798H96.3041V56.4328ZM68.6261 82.0588C68.6011 81.8328 68.5961 81.7928 68.5351 81.7928C68.5273 81.7926 68.5195 81.794 68.5123 81.7969C68.5051 81.7999 68.4986 81.8042 68.4931 81.8098C68.4731 81.8298 68.4721 81.8548 68.4671 81.8858C68.3461 82.3798 68.1241 82.6108 68.1211 82.6158L68.1171 82.6198C67.923 82.8811 67.6706 83.0934 67.38 83.2399C67.0894 83.3864 66.7686 83.4631 66.4431 83.4638H45.9811C45.5853 83.4627 45.1979 83.3493 44.8639 83.1369C44.5299 82.9245 44.263 82.6218 44.0941 82.2638C44.0621 82.1908 43.9741 81.9778 43.9641 81.8788C43.9621 81.8558 43.9571 81.7918 43.8991 81.7918C43.8371 81.7918 43.8271 81.8358 43.8061 82.0598C43.7959 82.1702 43.7899 82.2809 43.7881 82.3918C43.7881 83.6058 44.7751 84.5938 45.9881 84.5938H66.4511C67.6641 84.5938 68.6511 83.6058 68.6511 82.3918C68.6475 82.2805 68.6391 82.1694 68.6261 82.0588Z" fill="white"/>
<path d="M45.774 82.8696C45.994 82.9336 46.204 82.9666 46.394 82.9666C46.864 82.9836 47.19 82.8956 47.422 82.8336C47.508 82.8116 47.581 82.7906 47.645 82.7826C47.82 82.7586 48.082 82.7626 48.382 82.7926C48.497 82.8096 48.624 82.8256 48.76 82.8406C49.612 82.9376 50.765 83.0036 51.34 82.9836L51.348 82.9826H51.364C52.016 82.9826 52.478 82.7376 52.647 82.6316C52.983 82.8166 53.853 82.9466 54.191 82.9636C54.438 82.9756 54.706 82.9826 54.988 82.9826C56.224 82.9826 57.558 82.8626 58.288 82.7506C59.486 82.9866 61.476 83.0376 62.939 83.0376C64.199 83.0376 65.316 82.9976 65.531 82.9706L65.623 82.9606C66.029 82.9186 66.979 82.8206 67.367 81.9426C67.521 81.5926 67.507 81.2256 67.324 80.8486C67.944 80.0876 68.03 78.7866 67.79 77.8686C67.6787 77.4521 67.4989 77.057 67.258 76.6996C67.0697 76.1892 66.8395 75.6951 66.57 75.2226C66.09 74.3276 65.158 73.7066 63.876 73.4266C63.016 73.2386 62.01 73.1996 61.226 73.3166L60.94 73.3666C60.39 73.4616 59.244 73.6596 58.87 73.6706C58.842 73.6704 58.8143 73.6641 58.7891 73.652C58.7638 73.6399 58.7416 73.6223 58.724 73.6006C58.666 73.5256 58.61 73.3536 58.681 72.9506C58.683 72.9393 58.6847 72.928 58.686 72.9166C58.788 72.3146 58.626 71.8176 58.216 71.4796C58.017 71.3166 57.763 71.2376 57.438 71.2376C57.173 71.2376 56.902 71.2886 56.648 71.3406C56.5764 71.3555 56.505 71.3715 56.434 71.3886C56.088 71.4666 55.716 71.5336 55.429 71.4406C55.3882 71.4267 55.349 71.4086 55.312 71.3866C54.902 71.1576 54.147 70.4146 53.724 69.9686C53.773 69.8726 53.806 69.7886 53.851 69.6766C53.879 69.6066 53.911 69.5266 53.958 69.4176C53.998 69.3276 54.134 69.0996 54.211 68.9776C54.2303 68.9465 54.2432 68.9119 54.2488 68.8757C54.2545 68.8396 54.2528 68.8026 54.2438 68.7672C54.2348 68.7317 54.2188 68.6984 54.1967 68.6692C54.1745 68.6401 54.1467 68.6157 54.115 68.5976C53.9142 68.4887 53.6941 68.4201 53.467 68.3956C53.757 67.9076 53.993 67.2956 54.021 67.2196C54.0367 67.1781 54.042 67.1334 54.0362 67.0894C54.0305 67.0454 54.0139 67.0036 53.988 66.9676C53.962 66.9315 53.9277 66.9023 53.888 66.8824C53.8483 66.8626 53.8044 66.8527 53.76 66.8536C52.481 66.9016 51.85 67.1536 51.539 67.3786C51.3641 67.256 51.1555 67.1906 50.942 67.1916C50.7327 67.1903 50.5273 67.2483 50.3496 67.3589C50.1719 67.4695 50.0292 67.6282 49.938 67.8166C49.672 67.8806 49.207 68.0876 48.731 68.7366C48.075 69.6266 47.354 70.0766 47.008 70.2936C46.928 70.3436 46.867 70.3816 46.833 70.4086C46.387 70.7596 45.947 71.2966 46.503 72.3546C46.903 73.1146 47.839 73.3856 48.583 73.3856C48.76 73.3856 48.934 73.3716 49.103 73.3426C49.1623 73.4294 49.2003 73.5289 49.2141 73.6332C49.2278 73.7374 49.2168 73.8434 49.182 73.9426C49.135 74.0726 49.069 74.1996 49.002 74.3246L48.942 74.4386C48.782 74.7326 48.616 75.0366 48.742 75.5286C48.537 75.6676 48.278 75.9526 48.221 76.2756C48.189 76.4576 48.195 76.6366 48.242 76.8196C48.2285 76.8169 48.2151 76.8136 48.202 76.8096L48.052 76.7696C47.714 76.6766 47.325 76.6076 46.967 76.7496C46.545 76.9176 45.947 77.3886 45.486 78.6736C45.361 79.0256 45.242 79.3576 45.386 79.6736C45.397 79.6986 45.427 79.7656 45.206 79.8936C45.1349 79.9362 45.0729 79.9925 45.0236 80.0591C44.9744 80.1258 44.9387 80.2015 44.9187 80.282C44.8988 80.3624 44.8949 80.446 44.9073 80.528C44.9196 80.6099 44.9481 80.6886 44.991 80.7596L44.994 80.7566C44.998 80.7666 45.002 80.7766 45.008 80.7846C45.022 80.8066 45.026 80.8136 45.008 80.8446C44.942 80.9496 44.873 81.0646 44.826 81.1976C44.726 81.4796 44.713 81.5426 44.683 81.6906C44.601 82.0896 44.986 82.6406 45.774 82.8696ZM44.911 81.7126C44.936 81.5906 44.946 81.5396 45.041 81.2736C45.084 81.1516 45.155 81.0386 45.203 80.9616C45.2348 80.9142 45.2507 80.858 45.2484 80.8009C45.2461 80.7439 45.2256 80.6891 45.19 80.6446L45.186 80.6386C45.1439 80.5699 45.1243 80.4899 45.13 80.4096C45.1329 80.3447 45.1518 80.2816 45.1849 80.2258C45.2181 80.17 45.2644 80.1232 45.32 80.0896C45.587 79.9366 45.68 79.7646 45.594 79.5766C45.494 79.3566 45.57 79.1196 45.701 78.7496C46.133 77.5446 46.674 77.1126 47.051 76.9606C47.355 76.8406 47.671 76.9006 47.992 76.9896L48.164 77.0346C48.327 77.0756 48.42 77.0246 48.454 76.9776C48.478 76.9426 48.502 76.8826 48.473 76.7906C48.4256 76.6361 48.416 76.4725 48.445 76.3136C48.497 76.0256 48.764 75.7666 48.928 75.6816C48.9518 75.6694 48.9706 75.6491 48.981 75.6244C48.9915 75.5998 48.9928 75.5722 48.985 75.5466C48.844 75.0936 48.975 74.8516 49.142 74.5466L49.207 74.4256C49.274 74.2976 49.344 74.1636 49.397 74.0186C49.545 73.6086 49.34 73.2716 49.245 73.1466C49.232 73.1296 49.2145 73.1166 49.1946 73.109C49.1746 73.1014 49.1529 73.0995 49.132 73.1036C48.9507 73.1379 48.7665 73.155 48.582 73.1546C47.906 73.1546 47.058 72.9166 46.705 72.2456C46.232 71.3456 46.555 70.9156 46.975 70.5856C47.005 70.5626 47.058 70.5296 47.129 70.4856C47.488 70.2616 48.233 69.7966 48.915 68.8716C49.398 68.2116 49.861 68.0606 50.038 68.0266C50.0556 68.0233 50.0722 68.0157 50.0864 68.0046C50.1005 67.9934 50.1117 67.979 50.119 67.9626C50.189 67.8116 50.356 67.5436 50.689 67.4546C50.7713 67.4314 50.8564 67.4193 50.942 67.4186C51.186 67.4186 51.362 67.5236 51.467 67.6106C51.4874 67.6279 51.5134 67.6373 51.5401 67.6371C51.5669 67.6369 51.5928 67.6272 51.613 67.6096C51.82 67.4356 52.376 67.1336 53.77 67.0826C53.7764 67.0825 53.7828 67.0841 53.7886 67.087C53.7943 67.09 53.7992 67.0943 53.803 67.0996C53.811 67.1116 53.813 67.1256 53.808 67.1386C53.795 67.1706 53.502 67.9426 53.174 68.4326C53.1624 68.4495 53.1557 68.4693 53.1545 68.4898C53.1533 68.5103 53.1576 68.5307 53.167 68.5489C53.1764 68.5672 53.1906 68.5825 53.208 68.5934C53.2254 68.6042 53.2454 68.6102 53.266 68.6106C53.459 68.6146 53.742 68.6496 54.004 68.7966C54.0089 68.7992 54.0133 68.8029 54.0168 68.8074C54.0202 68.8119 54.0227 68.8171 54.024 68.8226C54.0253 68.828 54.0256 68.8336 54.0248 68.8391C54.0239 68.8446 54.0219 68.8499 54.019 68.8546C54.009 68.8676 53.809 69.1866 53.749 69.3256C53.7 69.4356 53.667 69.5196 53.63 69.6126C53.584 69.7286 53.55 69.8126 53.485 69.9316C53.4735 69.9529 53.4689 69.9773 53.4719 70.0013C53.475 70.0253 53.4855 70.0478 53.502 70.0656C53.617 70.1886 54.639 71.2706 55.198 71.5836C55.198 71.5856 55.2 71.5856 55.202 71.5876C55.259 71.6196 55.312 71.6436 55.359 71.6576C55.695 71.7666 56.11 71.6956 56.484 71.6106L56.694 71.5636C56.937 71.5136 57.195 71.4646 57.438 71.4646C57.708 71.4646 57.915 71.5276 58.07 71.6546C58.414 71.9386 58.549 72.3616 58.462 72.8776L58.456 72.9116C58.431 73.0566 58.354 73.4986 58.546 73.7416C58.5845 73.7896 58.6332 73.8286 58.6885 73.8557C58.7438 73.8828 58.8044 73.8975 58.866 73.8986C59.267 73.8876 60.382 73.6946 60.979 73.5916C61.107 73.5696 61.207 73.5516 61.263 73.5436C61.5752 73.4982 61.8904 73.4761 62.206 73.4776C62.751 73.4776 63.313 73.5376 63.828 73.6496C65.043 73.9146 65.921 74.4966 66.372 75.3346C66.729 75.9346 66.999 76.6536 67.049 76.7916C67.053 76.8016 67.057 76.8106 67.063 76.8196C67.121 76.8996 67.414 77.3336 67.57 77.9266C67.796 78.7896 67.708 80.0746 67.1 80.7576C67.0842 80.7754 67.0744 80.7978 67.0721 80.8215C67.0697 80.8452 67.0749 80.869 67.087 80.8896L67.114 80.9376C67.271 81.2536 67.287 81.5606 67.159 81.8496C66.825 82.6056 65.999 82.6906 65.6 82.7316L65.503 82.7426C65.329 82.7646 64.266 82.8086 62.94 82.8086C61.744 82.8086 59.553 82.7716 58.313 82.5216C58.3055 82.5196 58.2977 82.5186 58.29 82.5186L58.272 82.5206C57.557 82.6326 56.224 82.7536 54.989 82.7536C54.711 82.7536 54.446 82.7476 54.203 82.7346C53.769 82.7136 52.896 82.5496 52.719 82.4056C52.6991 82.39 52.6747 82.3814 52.6495 82.3808C52.6242 82.3803 52.5995 82.3879 52.579 82.4026C52.529 82.4386 52.076 82.7526 51.338 82.7526L51.319 82.7546C50.749 82.7746 49.622 82.7086 48.786 82.6136C48.653 82.5986 48.528 82.5826 48.41 82.5656C48.1461 82.5332 47.8795 82.5299 47.615 82.5556C47.543 82.5656 47.461 82.5866 47.364 82.6136C47.164 82.6656 46.889 82.7396 46.51 82.7396C46.475 82.7396 46.44 82.7396 46.4 82.7376C46.227 82.7376 46.038 82.7076 45.838 82.6496C45.148 82.4496 44.854 81.9896 44.911 81.7126Z" fill="white"/>
<path d="M63.235 74.6698L63.247 74.6838C63.517 74.9838 63.819 75.3208 64.148 75.6138L64.163 75.6258C64.875 76.3038 65.486 76.3118 65.512 76.3118C65.949 76.3118 66.303 76.0518 66.402 75.9718C66.3512 75.8663 66.2978 75.7619 66.242 75.6588C66.1559 75.5064 66.0645 75.3569 65.968 75.2108C65.8903 75.0948 65.8023 74.986 65.705 74.8858C64.947 74.1158 63.771 73.8608 62.918 73.7838L62.902 73.7848C62.6829 73.7652 62.463 73.7548 62.243 73.7538C62.453 73.8948 62.645 74.0508 62.815 74.2208C62.941 74.3448 63.077 74.4938 63.235 74.6698ZM52.33 70.8368H52.328C52.406 71.0748 52.543 71.6418 52.238 72.0848C51.861 72.6308 51.128 72.7628 50.592 72.8578L50.464 72.8798C50.426 72.8898 50.374 72.8968 50.312 72.9068C50.166 72.9278 49.826 72.9788 49.829 73.0868C49.834 73.2258 49.956 73.3068 50.166 73.3068C50.2499 73.3058 50.3333 73.2937 50.414 73.2708C50.536 73.2238 50.671 73.1648 50.809 73.0978C50.8501 73.0771 50.8964 73.0692 50.942 73.0751C50.9876 73.081 51.0304 73.1005 51.0649 73.1309C51.0993 73.1614 51.1238 73.2015 51.1353 73.246C51.1467 73.2906 51.1445 73.3375 51.129 73.3808C51.119 73.4095 51.1035 73.436 51.0832 73.4586C51.063 73.4813 51.0384 73.4997 51.011 73.5128C50.7363 73.6515 50.4477 73.7607 50.15 73.8388C50.1 73.8588 50.083 73.8908 50.098 73.9458C50.121 74.0308 50.161 74.0358 50.224 74.0318C51.9257 73.6352 53.4991 72.8136 54.797 71.6438C54.298 71.2768 53.677 70.6448 53.399 70.3528C53.202 70.5478 52.826 70.8368 52.33 70.8368ZM51.894 68.7188C52.282 68.7188 52.763 68.4188 53.064 67.9908C53.254 67.7208 53.354 67.5238 53.42 67.3818C52.614 67.4788 51.646 67.7268 51.464 68.1248C51.404 68.2548 51.431 68.4028 51.546 68.5648C51.618 68.6648 51.738 68.7188 51.894 68.7188ZM49.23 76.2428H49.35C49.927 76.2428 50.554 76.1978 51.21 76.1068C52.548 75.9218 54.686 75.4468 57.28 74.2338C57.301 74.2218 57.316 74.1908 57.311 74.1618C57.307 74.1378 57.28 74.0618 57.079 74.0348C56.574 73.9338 56.487 73.5298 56.486 73.5248C56.486 73.5248 56.398 73.3488 56.543 73.2348C56.5953 73.2047 56.6572 73.1958 56.7159 73.2097C56.7746 73.2236 56.8258 73.2594 56.859 73.3098C56.865 73.3188 57.01 73.5398 57.358 73.5398H57.384C57.7 73.5298 58.084 73.2598 58.16 72.9948C58.283 72.4868 58.194 72.1068 57.898 71.8668C57.788 71.7778 57.638 71.7368 57.434 71.7368C57.364 71.7368 57.289 71.7408 57.202 71.7508C56.706 71.8408 56.372 72.2428 56.246 72.3938L55.966 72.7288C54.76 74.0868 53.282 74.7268 51.858 75.2148C50.628 75.6368 49.615 75.7518 49.238 75.7818C49.148 75.7938 49.018 75.8688 49.028 76.0268C49.0331 76.0802 49.0558 76.1304 49.0926 76.1695C49.1293 76.2086 49.177 76.2344 49.23 76.2428ZM49.19 81.1968C49.0247 80.9547 48.8246 80.7384 48.596 80.5548C48.297 80.3288 47.996 80.3308 47.833 80.4298C47.655 80.5378 47.623 80.6988 47.595 80.8228C47.563 80.9668 47.508 81.3118 47.457 81.6428C47.41 81.9528 47.725 82.1608 48.224 82.0818C48.802 81.9958 49.604 81.8438 49.191 81.1978L49.19 81.1968Z" fill="white"/>
<path d="M45.2021 81.854C45.2418 81.6772 45.2988 81.5047 45.3721 81.339C45.4121 81.254 45.4601 81.21 45.5121 81.21C45.5271 81.21 45.5421 81.213 45.5531 81.218C45.5621 81.2218 45.5702 81.2276 45.5768 81.2348C45.5833 81.2421 45.5882 81.2507 45.5911 81.26C45.6111 81.314 45.5851 81.393 45.5661 81.435C45.5461 81.482 45.4391 81.733 45.3831 82.055C45.3751 82.114 45.5401 82.173 45.5191 82.163C45.5391 82.173 45.5571 82.181 45.5781 82.188C45.7951 82.269 45.9251 82.098 45.9721 81.666C46.0481 80.966 45.9131 80.875 45.8161 80.808L45.7911 80.789C45.6991 80.728 45.6011 80.649 45.5941 80.514C45.6181 80.24 45.8861 80.24 46.0641 80.24C46.1581 80.24 46.2661 80.244 46.4311 80.253C46.5139 80.2633 46.5977 80.2438 46.6675 80.198C46.7373 80.1522 46.7885 80.0831 46.8121 80.003C46.849 79.8868 46.8503 79.7622 46.8157 79.6453C46.7811 79.5283 46.7123 79.4245 46.6181 79.347C46.2791 79.061 46.1611 78.863 46.2341 78.707C46.2513 78.6681 46.2799 78.6352 46.3161 78.6129C46.3524 78.5906 46.3946 78.5798 46.4371 78.582C46.5281 78.582 46.6481 78.624 46.8041 78.712C46.8441 78.734 46.8841 78.745 46.9261 78.745C47.1261 78.745 47.3121 78.487 47.3821 78.376C47.4927 78.1835 47.6374 78.0127 47.8091 77.872C47.9311 77.781 48.0961 77.773 48.1781 77.862C48.2251 77.914 48.2441 77.986 48.2351 78.08C48.2241 78.191 48.1851 78.334 48.1211 78.495C48.0071 78.763 47.9971 79.006 48.0901 79.219C48.1781 79.419 48.3651 79.589 48.5901 79.67C48.9861 79.812 49.1441 79.772 49.5421 79.638C49.8271 79.541 50.0001 79.554 50.0681 79.67C50.1161 79.756 50.0941 79.878 50.0031 80.034C49.7871 80.401 49.6231 80.85 49.8101 81.012C49.8101 81.01 49.8431 80.988 49.8801 80.914C49.9981 80.664 50.1971 80.247 50.6821 80.247C50.7721 80.247 50.8691 80.263 50.9701 80.293C50.989 80.2979 51.0063 80.3076 51.0202 80.3213C51.034 80.335 51.044 80.3522 51.0491 80.371C51.0601 80.414 51.0441 80.463 51.0021 80.508C50.8301 80.698 50.4711 81.188 50.8671 81.642C50.9811 81.772 51.1521 81.857 51.3571 81.889C51.4221 81.899 51.4851 81.904 51.5471 81.904C52.0531 81.904 52.2811 81.556 52.3301 81.373C52.3461 81.313 52.3561 81.255 52.3641 81.201C52.3871 81.057 52.4101 80.913 52.5341 80.695C52.6441 80.435 52.8481 80.199 53.1371 79.998C53.7821 79.548 54.1751 78.857 54.2451 78.656L54.2681 78.588C54.3301 78.406 54.3641 78.306 54.5131 78.301C54.5475 78.2993 54.5819 78.306 54.6131 78.3206C54.6443 78.3353 54.6715 78.3574 54.6921 78.385C54.7601 78.478 54.7581 78.635 54.6881 78.85C54.6081 79.096 54.2031 79.702 53.8871 80.05C53.7151 80.24 53.5551 80.786 53.7041 81.182C53.7921 81.416 53.9751 81.55 54.2491 81.582L54.3791 81.588C54.6761 81.61 54.9341 81.621 55.1691 81.621C55.8591 81.621 56.3471 81.531 56.6171 81.354C56.8941 81.173 57.0291 81.037 57.1141 80.852C57.2621 80.475 57.3881 79.965 57.5001 79.295C57.8151 77.407 57.3161 76.332 57.1091 75.985C57.0212 76.0758 56.9102 76.1408 56.7881 76.173C56.7456 76.1841 56.702 76.1898 56.6581 76.19C56.5409 76.1884 56.4271 76.1507 56.3321 76.082C56.3102 76.1415 56.2763 76.1959 56.2324 76.2417C56.1885 76.2874 56.1356 76.3237 56.0771 76.348C56.0003 76.3798 55.9182 76.3968 55.8351 76.398C55.7268 76.3977 55.6209 76.3661 55.5301 76.307C55.5043 76.384 55.4592 76.453 55.3992 76.5076C55.3391 76.5622 55.2661 76.6006 55.1871 76.619C55.1358 76.6322 55.0831 76.6389 55.0301 76.639C54.9303 76.6402 54.8324 76.6124 54.7481 76.559C54.7185 76.6293 54.6726 76.6914 54.6142 76.7403C54.5557 76.7892 54.4864 76.8234 54.4121 76.84C54.3361 76.8623 54.2562 76.868 54.1779 76.8566C54.0995 76.8452 54.0246 76.8171 53.9581 76.774C53.9401 76.8562 53.8988 76.9314 53.8393 76.9908C53.7797 77.0502 53.7043 77.0912 53.6221 77.109C53.5707 77.1214 53.518 77.1277 53.4651 77.128C53.3392 77.129 53.217 77.0854 53.1201 77.005C53.0878 77.0722 53.0399 77.1307 52.9804 77.1756C52.9209 77.2204 52.8516 77.2504 52.7781 77.263C52.725 77.2755 52.6707 77.2822 52.6161 77.283C52.4978 77.2852 52.3823 77.2476 52.2881 77.176C52.2561 77.24 52.2105 77.2962 52.1546 77.3408C52.0986 77.3853 52.0336 77.4172 51.9641 77.434C51.9079 77.4488 51.8502 77.4565 51.7921 77.457C51.6964 77.4579 51.6022 77.4334 51.5191 77.386C51.4825 77.4398 51.4357 77.4859 51.3813 77.5216C51.3269 77.5573 51.266 77.5819 51.2021 77.594C51.1569 77.6049 51.1106 77.6106 51.0641 77.611C50.9987 77.6122 50.9337 77.5996 50.8734 77.5741C50.8131 77.5487 50.7588 77.5108 50.7141 77.463C50.6856 77.5123 50.6682 77.5673 50.6631 77.624C50.6551 77.744 50.6661 77.834 50.9681 78.191C51.0771 78.321 51.2401 78.481 51.3841 78.621L51.3921 78.63C51.7941 79.023 52.1091 79.332 52.0111 79.522C51.9721 79.595 51.9011 79.635 51.8061 79.635C51.6361 79.635 51.3731 79.512 50.9501 79.237C50.9101 79.21 50.8701 79.182 50.8281 79.155L50.7961 79.127C50.6861 79.05 50.3881 78.838 50.2371 78.729C49.743 78.3867 49.2405 78.0566 48.7301 77.739L48.7041 77.723C48.5021 77.587 47.8871 77.176 47.3931 77.176C47.3031 77.176 47.2231 77.191 47.1551 77.218C46.8291 77.348 46.3571 77.736 45.9601 78.848C45.8961 79.014 45.7961 79.361 45.8451 79.462C45.9321 79.654 45.9981 80.022 45.4581 80.33C45.4291 80.347 45.4081 80.386 45.4061 80.428C45.4056 80.4415 45.4073 80.4551 45.4111 80.468C45.4221 80.518 45.4411 80.561 45.4681 80.601L45.4751 80.609L45.4891 80.629C45.5831 80.771 45.5291 80.912 45.4201 81.083C45.3927 81.1261 45.3673 81.1705 45.3441 81.216C45.3471 81.212 45.3511 81.211 45.3541 81.208C45.3302 81.236 45.3101 81.2669 45.2941 81.3C45.2448 81.4278 45.1987 81.5568 45.1561 81.687C45.1031 81.854 45.1691 81.938 45.1691 81.938L45.2021 81.854ZM57.8801 75.358C57.8178 75.3824 57.7609 75.4188 57.7128 75.4654C57.6648 75.5119 57.6264 75.5675 57.6001 75.629C57.5441 75.766 57.5541 75.929 57.6291 76.098C57.6741 76.21 57.7441 76.407 57.7911 76.556C57.8221 76.657 57.9271 76.894 58.2151 76.894C58.2581 76.894 58.3051 76.888 58.3531 76.877C58.7401 76.789 58.7331 76.605 58.7231 76.391C58.7003 76.1157 58.6373 75.8451 58.5361 75.588C58.5022 75.5037 58.4429 75.4321 58.3663 75.3831C58.2898 75.3342 58.1998 75.3104 58.1091 75.315C58.0308 75.3158 57.9533 75.3303 57.8801 75.358ZM58.4001 79.082H58.3731C58.1091 79.082 57.9551 79.199 57.9111 79.431C57.8805 79.5947 57.8515 79.7587 57.8241 79.923C57.8113 80.0487 57.8467 80.1745 57.9231 80.275C57.9639 80.3263 58.0156 80.3679 58.0744 80.397C58.1331 80.426 58.1976 80.4417 58.2631 80.443C58.2804 80.4444 58.2977 80.4451 58.3151 80.445C58.5721 80.445 58.7311 80.303 58.7851 80.022C58.8091 79.898 58.8441 79.605 58.8491 79.482C58.8431 79.3864 58.8026 79.2961 58.7351 79.228C58.6921 79.1822 58.6403 79.1456 58.5827 79.1205C58.525 79.0954 58.4629 79.0823 58.4001 79.082ZM58.4101 77.214C58.3463 77.2133 58.2831 77.2254 58.224 77.2494C58.1649 77.2734 58.1113 77.309 58.0661 77.354C58.0227 77.4005 57.9892 77.4553 57.9677 77.5151C57.9462 77.575 57.9372 77.6386 57.9411 77.702C57.9471 77.87 57.9541 77.978 57.9581 78.064C57.9641 78.147 57.9681 78.211 57.9681 78.287C57.9681 78.495 58.0461 78.742 58.4181 78.742V78.752L58.4201 78.742C58.8301 78.742 58.8931 78.479 58.9041 78.28C58.9141 78.113 58.8941 77.77 58.8631 77.56C58.8201 77.28 58.5981 77.217 58.4201 77.214H58.4101ZM60.8831 80.904C60.8831 80.904 61.0911 80.853 60.8831 80.716C60.6751 80.579 60.3051 80.385 59.8451 80.573C59.3841 80.762 59.3651 81.113 59.5981 81.21C59.8321 81.307 60.1071 81.344 60.0721 81.437C60.0121 81.593 59.3901 81.262 59.3321 81.702C59.2901 82.026 59.4751 82.142 59.9421 82.179C59.9861 82.179 60.0121 82.167 60.0121 82.136C60.0161 81.939 60.0821 81.191 60.8831 80.904Z" fill="white"/>
<path d="M62.213 81.5051C61.918 81.4911 61.371 81.4291 61.157 81.1631C61.133 81.1301 61.094 81.1211 61.047 81.1361C60.851 81.2011 60.337 81.4331 60.277 82.1081C60.27 82.1691 60.287 82.1981 60.313 82.2211C60.4273 82.3199 60.5703 82.3794 60.721 82.3911C60.757 82.3931 60.785 82.3741 60.787 82.3441C60.795 82.2211 60.843 81.8901 61.038 81.6181C61.172 81.4061 61.36 81.5691 61.264 81.7181C61.214 81.8051 61.069 82.1311 61.094 82.3851C61.098 82.4231 61.13 82.4521 61.174 82.4601C61.292 82.4841 61.578 82.5321 61.924 82.4781C61.9543 82.4731 61.983 82.4611 62.008 82.4431C62.09 82.3721 62.29 82.1861 62.388 81.6211C62.411 81.5441 62.288 81.5071 62.213 81.5051ZM62.063 80.7791C61.689 80.7511 61.686 80.5891 61.684 80.5191C61.681 80.3991 61.806 80.3011 61.856 80.2661C61.7649 80.1795 61.6963 80.0721 61.656 79.9531C61.509 80.0431 61.307 80.2431 61.313 80.5271C61.316 80.6971 61.394 81.1021 62.038 81.1491C62.321 81.1661 62.498 81.2391 62.528 81.2721C62.528 81.2721 62.598 81.1041 62.812 81.0351C62.639 80.8301 62.197 80.7871 62.063 80.7791ZM63.928 81.2641C63.928 81.2641 63.571 81.1351 63.192 81.1621C62.924 81.2021 62.738 81.3391 62.72 81.5651C62.667 82.2351 63.382 82.2091 63.674 82.1881C63.966 82.1691 65.04 82.1881 65.04 82.1881C64.7811 81.7662 64.3902 81.4414 63.928 81.2641Z" fill="white"/>
<path d="M59.256 79.0838C59.259 79.5438 59.555 79.8488 60.137 79.9858C60.215 80.0008 60.291 80.0079 60.363 80.0079C60.917 80.0079 61.067 79.5208 61.227 79.0058L61.257 78.9068C61.421 78.3808 61.754 77.9608 62.245 77.6588C62.455 77.5118 62.625 77.4428 62.625 77.4418C62.6802 77.4251 62.7397 77.4295 62.7918 77.4542C62.8439 77.4789 62.8849 77.5221 62.9069 77.5754C62.9289 77.6288 62.9302 77.6883 62.9106 77.7426C62.8911 77.7968 62.852 77.8418 62.801 77.8689C62.771 77.8829 62.02 78.2228 61.847 78.9438C61.767 79.2798 61.868 79.6838 62.119 80.0268C62.326 80.3108 62.819 80.7979 63.782 80.8689L63.948 80.8808C63.9612 80.8779 63.9746 80.8766 63.988 80.8768C65.148 80.8768 65.946 80.6158 66.36 80.0988C66.783 79.5708 66.678 78.9059 66.636 78.7159C66.6289 78.6821 66.6294 78.6472 66.6374 78.6136C66.6455 78.5801 66.6609 78.5487 66.6825 78.5218C66.7041 78.4949 66.7314 78.4732 66.7625 78.4581C66.7935 78.4431 66.8275 78.4351 66.862 78.4348C66.9144 78.4347 66.9653 78.4525 67.0062 78.4852C67.0471 78.518 67.0756 78.5637 67.087 78.6148C67.141 78.8568 67.272 79.7008 66.721 80.3878L66.658 80.4618C66.5374 80.6069 66.3939 80.7312 66.233 80.8298C66.253 80.8328 66.278 80.8338 66.306 80.8338C66.464 80.8338 66.703 80.7778 66.953 80.5108C67.446 79.8888 67.504 78.7508 67.307 77.9958C67.216 77.6714 67.0833 77.3601 66.912 77.0698C66.598 77.2728 66.112 77.5018 65.512 77.5018C64.981 77.5018 64.134 77.2379 63.35 76.4949C62.976 76.1609 62.64 75.7848 62.368 75.4848L62.353 75.4678C62.215 75.3138 62.085 75.1688 61.983 75.0678C61.578 74.6698 61.082 74.4459 60.737 74.3279C60.712 74.3213 60.687 74.3147 60.662 74.3078L60.629 74.2978C60.537 74.2708 60.433 74.2398 60.309 74.2128C60.1154 74.1682 59.9149 74.1625 59.719 74.1958C59.629 74.2218 59.539 74.2458 59.466 74.2628L59.447 74.2698L59.424 74.2778C59.135 74.4148 58.809 74.6878 58.913 75.2078C58.936 75.3058 59.427 77.4808 59.256 79.0838ZM66.716 77.3848C66.746 77.4448 66.761 77.5098 66.761 77.5748C66.761 77.8008 66.591 77.9848 66.385 77.9848C66.201 77.9848 66.048 77.8448 66.015 77.6448C66.253 77.5918 66.485 77.5068 66.716 77.3848ZM65.509 77.7048C65.602 77.7028 65.695 77.6968 65.795 77.6838C65.829 77.8938 65.963 78.0738 66.147 78.1588C66.0774 78.212 65.9925 78.2415 65.9049 78.243C65.8173 78.2444 65.7315 78.2177 65.6601 78.1668C65.5887 78.1159 65.5356 78.0435 65.5084 77.9602C65.4812 77.8769 65.4814 77.788 65.509 77.7048ZM65.01 77.6479C65.1 77.6679 65.19 77.6818 65.278 77.6918C65.2553 77.7878 65.2554 77.8877 65.2784 77.9836C65.3013 78.0794 65.3464 78.1686 65.41 78.2439C65.3532 78.2487 65.296 78.2417 65.2421 78.2233C65.1881 78.2049 65.1386 78.1755 65.0966 78.137C65.0545 78.0984 65.021 78.0516 64.998 77.9994C64.975 77.9472 64.9631 77.8909 64.963 77.8338C64.963 77.7728 64.978 77.7109 65.01 77.6479ZM64.483 77.4818C64.582 77.5218 64.683 77.5578 64.79 77.5898C64.7493 77.6834 64.7323 77.7855 64.7405 77.8872C64.7487 77.9889 64.7818 78.087 64.837 78.1728C64.7517 78.1873 64.6639 78.1743 64.5865 78.1355C64.5091 78.0967 64.4461 78.0342 64.4066 77.9572C64.3672 77.8801 64.3533 77.7925 64.367 77.707C64.3808 77.6215 64.4214 77.5427 64.483 77.4818ZM64.011 77.2449C64.098 77.2959 64.185 77.3428 64.269 77.3848C64.2057 77.4683 64.1639 77.5661 64.1475 77.6695C64.1311 77.773 64.1406 77.8789 64.175 77.9778C64.0813 77.9602 63.9966 77.9103 63.9357 77.837C63.8747 77.7636 63.8412 77.6712 63.841 77.5758C63.841 77.4458 63.904 77.3259 64.011 77.2449ZM63.563 76.9389C63.643 77.0009 63.726 77.0609 63.812 77.1189C63.7341 77.1936 63.6767 77.2871 63.6452 77.3904C63.6137 77.4937 63.6091 77.6033 63.632 77.7088C63.5499 77.6878 63.4763 77.6419 63.4214 77.5773C63.3664 77.5127 63.3329 77.4327 63.3253 77.3482C63.3178 77.2638 63.3366 77.1791 63.3791 77.1058C63.4217 77.0324 63.486 76.9741 63.563 76.9389ZM63.106 76.5349C63.161 76.5869 63.207 76.6308 63.25 76.6688C63.29 76.7068 63.333 76.7449 63.378 76.7849C63.2967 76.8391 63.2289 76.9113 63.18 76.9959C63.1311 77.0805 63.1024 77.1753 63.096 77.2729C63.0272 77.2383 62.9694 77.1851 62.9294 77.1193C62.8893 77.0535 62.8687 76.9777 62.8697 76.9007C62.8708 76.8237 62.8935 76.7485 62.9353 76.6838C62.9771 76.6191 63.0363 76.5675 63.106 76.5349ZM62.679 76.1078C62.769 76.2038 62.854 76.2908 62.936 76.3728C62.8522 76.4262 62.7822 76.4985 62.7316 76.584C62.6811 76.6695 62.6514 76.7657 62.645 76.8648C62.5738 76.8322 62.5135 76.7798 62.4711 76.7138C62.4287 76.6479 62.4062 76.5712 62.406 76.4928C62.406 76.3228 62.516 76.1698 62.679 76.1078ZM62.289 75.6828L62.312 75.7078C62.377 75.7808 62.445 75.8558 62.517 75.9328C62.337 76.0298 62.217 76.2028 62.188 76.4038C62.134 76.366 62.0899 76.3158 62.0594 76.2573C62.0289 76.1988 62.013 76.1338 62.013 76.0678C62.013 75.8968 62.123 75.7428 62.289 75.6828ZM61.829 75.1908L61.879 75.2388C61.953 75.3118 62.045 75.4128 62.13 75.5058C62.0445 75.5506 61.9703 75.6141 61.913 75.6917C61.8556 75.7694 61.8167 75.859 61.799 75.9538C61.7235 75.9208 61.6597 75.8657 61.6159 75.7959C61.5721 75.726 61.5504 75.6445 61.5537 75.5621C61.5569 75.4797 61.5849 75.4002 61.6341 75.334C61.6832 75.2677 61.7511 75.2179 61.829 75.1908ZM61.343 74.8298C61.447 74.8918 61.547 74.9598 61.641 75.0308C61.548 75.0861 61.4704 75.1641 61.4157 75.2575C61.361 75.3509 61.3308 75.4566 61.328 75.5648C61.2613 75.5303 61.2053 75.4781 61.1662 75.4139C61.127 75.3497 61.1062 75.276 61.106 75.2008C61.106 75.0428 61.196 74.9008 61.343 74.8298ZM49.512 74.7658H49.527L49.56 74.7618C49.5495 74.822 49.554 74.8838 49.573 74.9418C49.5312 74.9602 49.4955 74.9902 49.4703 75.0284C49.4451 75.0665 49.4315 75.1111 49.431 75.1568C49.4311 75.204 49.445 75.2501 49.4711 75.2894C49.4971 75.3287 49.5342 75.3595 49.5777 75.3778C49.6211 75.3962 49.669 75.4013 49.7153 75.3926C49.7617 75.3839 49.8045 75.3617 49.8383 75.3289C49.8721 75.296 49.8955 75.2539 49.9055 75.2078C49.9156 75.1617 49.9118 75.1137 49.8947 75.0697C49.8776 75.0258 49.848 74.9878 49.8094 74.9607C49.7709 74.9335 49.7252 74.9182 49.678 74.9168C49.652 74.8788 49.658 74.7958 49.669 74.7498L49.671 74.7488C49.8405 74.7275 50.009 74.6991 50.176 74.6638L50.188 74.6609C50.1782 74.7237 50.1844 74.788 50.206 74.8478C50.1644 74.8706 50.1318 74.9068 50.1134 74.9505C50.095 74.9942 50.0919 75.0428 50.1046 75.0885C50.1174 75.1342 50.1452 75.1742 50.1836 75.202C50.222 75.2299 50.2687 75.2439 50.316 75.2418C50.3728 75.2418 50.4272 75.2193 50.4674 75.1792C50.5075 75.139 50.53 75.0846 50.53 75.0278C50.53 74.9711 50.5075 74.9167 50.4674 74.8765C50.4272 74.8364 50.3728 74.8139 50.316 74.8139L50.306 74.8158C50.283 74.7788 50.287 74.6938 50.298 74.6358H50.302C50.437 74.6058 50.577 74.5688 50.733 74.5248L50.749 74.5209C50.7406 74.5769 50.7457 74.6342 50.764 74.6879C50.7388 74.7032 50.7179 74.7248 50.7034 74.7505C50.6889 74.7763 50.6812 74.8053 50.681 74.8348C50.6784 74.8594 50.681 74.8842 50.6886 74.9077C50.6962 74.9312 50.7086 74.9529 50.7251 74.9712C50.7416 74.9896 50.7618 75.0043 50.7844 75.0143C50.8069 75.0244 50.8313 75.0296 50.856 75.0296C50.8807 75.0296 50.9052 75.0244 50.9277 75.0143C50.9503 75.0043 50.9704 74.9896 50.9869 74.9712C51.0035 74.9529 51.0159 74.9312 51.0235 74.9077C51.0311 74.8842 51.0337 74.8594 51.031 74.8348C51.0306 74.7908 51.0136 74.7485 50.9834 74.7164C50.9532 74.6844 50.912 74.6649 50.868 74.6618V74.6599C50.842 74.6219 50.85 74.5358 50.861 74.4888L51.059 74.4288L51.106 74.4138L51.12 74.4188C51.1838 74.4619 51.2563 74.4905 51.3323 74.5026C51.4083 74.5147 51.486 74.51 51.56 74.4888C51.6355 74.4681 51.7036 74.4269 51.757 74.3697C51.8103 74.3124 51.8467 74.2415 51.862 74.1648L51.865 74.1538L51.896 74.1368L51.913 74.1319L51.926 74.1518C51.96 74.2118 52.062 74.2518 52.182 74.2518C52.251 74.2518 52.322 74.2388 52.386 74.2138C52.4624 74.1895 52.5281 74.1397 52.5722 74.0727C52.6162 74.0057 52.6359 73.9256 52.628 73.8458L52.626 73.8238L52.68 73.7968L52.696 73.8129C52.7313 73.8495 52.774 73.8783 52.8212 73.8972C52.8685 73.9162 52.9192 73.9249 52.97 73.9228C53.04 73.9228 53.111 73.9068 53.178 73.8788C53.2575 73.8478 53.322 73.7874 53.3581 73.7102C53.3942 73.6329 53.3992 73.5447 53.372 73.4638L53.365 73.4408L53.385 73.4288L53.397 73.4218L53.422 73.4078L53.438 73.4258C53.4983 73.4908 53.5788 73.5333 53.6664 73.5464C53.754 73.5595 53.8435 73.5424 53.92 73.4978C53.9993 73.451 54.0592 73.3774 54.0891 73.2904C54.1189 73.2033 54.1168 73.1085 54.083 73.0229L54.073 72.9998L54.131 72.9608L54.149 72.9788C54.215 73.0441 54.3022 73.0835 54.3947 73.0897C54.4873 73.096 54.579 73.0687 54.6531 73.0128C54.7272 72.9569 54.7786 72.8763 54.7981 72.7856C54.8176 72.6949 54.8037 72.6002 54.759 72.5188L54.748 72.4968L54.798 72.4548L54.818 72.4748C54.878 72.5308 54.966 72.5618 55.063 72.5618C55.186 72.5618 55.305 72.5118 55.397 72.4218C55.515 72.3068 55.57 72.0888 55.462 71.9218C55.3719 71.9069 55.2844 71.8793 55.202 71.8398C54.512 72.4886 53.7361 73.0394 52.896 73.4768C52.359 73.7598 51.802 73.9978 51.239 74.1838C50.439 74.4478 49.81 74.5518 49.506 74.5888C49.426 74.6138 49.416 74.6528 49.421 74.6918C49.426 74.7408 49.457 74.7658 49.512 74.7658ZM49.217 77.0798C49.217 77.2568 49.36 77.4018 49.537 77.4018C49.6178 77.3955 49.6932 77.3589 49.7482 77.2994C49.8032 77.2399 49.8337 77.1619 49.8337 77.0808C49.8337 76.9998 49.8032 76.9218 49.7482 76.8623C49.6932 76.8028 49.6178 76.7662 49.537 76.7598H49.532C49.5316 76.7571 49.5309 76.7545 49.53 76.7518C49.513 76.7085 49.513 76.6602 49.53 76.6168C49.5366 76.6019 49.5371 76.5851 49.5316 76.5698C49.526 76.5545 49.5147 76.542 49.5 76.5349C49.4853 76.5283 49.4686 76.5278 49.4535 76.5334C49.4383 76.539 49.426 76.5503 49.419 76.5648C49.39 76.6345 49.3871 76.7123 49.411 76.7838V76.7849C49.3534 76.81 49.3044 76.8513 49.2699 76.9039C49.2354 76.9565 49.2171 77.017 49.217 77.0798ZM49.981 77.0398C49.9812 77.1033 50.0002 77.1653 50.0356 77.2179C50.071 77.2706 50.1212 77.3116 50.1799 77.3357C50.2386 77.3598 50.3031 77.3661 50.3653 77.3536C50.4275 77.3411 50.4846 77.3104 50.5294 77.2655C50.5742 77.2205 50.6046 77.1633 50.6169 77.1011C50.6292 77.0389 50.6228 76.9744 50.5985 76.9158C50.5742 76.8572 50.533 76.8071 50.4803 76.7719C50.4275 76.7366 50.3655 76.7179 50.302 76.7178L50.301 76.7138C50.3003 76.7104 50.2993 76.7071 50.298 76.7038C50.2809 76.6601 50.2809 76.6116 50.298 76.5678C50.3025 76.5586 50.3045 76.5483 50.3039 76.538C50.3032 76.5277 50.2999 76.5177 50.2943 76.5091C50.2886 76.5004 50.2809 76.4934 50.2717 76.4886C50.2626 76.4838 50.2524 76.4815 50.242 76.4818C50.2301 76.4819 50.2184 76.4854 50.2085 76.492C50.1985 76.4985 50.1907 76.5079 50.186 76.5188C50.1573 76.5879 50.1548 76.6651 50.179 76.7358L50.182 76.7418C50.1229 76.7658 50.0722 76.8069 50.0364 76.8598C50.0006 76.9127 49.9813 76.976 49.981 77.0398ZM50.732 76.9568C50.7321 77.017 50.7491 77.076 50.7811 77.127C50.8132 77.1779 50.8589 77.2188 50.9132 77.2449C50.9674 77.2711 51.0279 77.2814 51.0877 77.2747C51.1475 77.2679 51.2042 77.2445 51.2513 77.207C51.2984 77.1695 51.334 77.1195 51.3539 77.0627C51.3739 77.0059 51.3774 76.9447 51.3641 76.886C51.3509 76.8273 51.3213 76.7735 51.2788 76.7309C51.2363 76.6882 51.1827 76.6584 51.124 76.6448C51.106 76.6406 51.0876 76.6383 51.069 76.6378L51.061 76.6358H51.054V76.6288L51.05 76.6189C51.022 76.5559 51.047 76.4918 51.05 76.4838C51.0564 76.4691 51.0568 76.4525 51.051 76.4375C51.0452 76.4225 51.0337 76.4104 51.019 76.4038C51.0113 76.3999 51.0027 76.3979 50.994 76.3979C50.9822 76.3981 50.9706 76.4017 50.9607 76.4083C50.9508 76.4148 50.9429 76.424 50.938 76.4348C50.9095 76.5036 50.907 76.5804 50.931 76.6508L50.933 76.6599C50.8741 76.684 50.8236 76.7251 50.788 76.778C50.7523 76.8309 50.7332 76.8931 50.733 76.9568H50.732ZM51.465 76.8178C51.465 76.8813 51.4838 76.9433 51.5191 76.9961C51.5543 77.0488 51.6044 77.09 51.663 77.1143C51.7216 77.1386 51.7861 77.1451 51.8483 77.1328C51.9105 77.1204 51.9677 77.09 52.0127 77.0452C52.0576 77.0004 52.0883 76.9433 52.1007 76.8811C52.1132 76.8189 52.107 76.7544 52.0829 76.6957C52.0588 76.637 52.0178 76.5868 51.9651 76.5514C51.9125 76.516 51.8505 76.497 51.787 76.4968L51.786 76.4928C51.7856 76.4894 51.7846 76.486 51.783 76.4828C51.753 76.4158 51.783 76.3478 51.783 76.3458C51.7895 76.3312 51.79 76.3147 51.7844 76.2997C51.7788 76.2848 51.7675 76.2726 51.753 76.2658C51.7448 76.2626 51.7359 76.2613 51.727 76.2618C51.7153 76.2617 51.7038 76.2649 51.6939 76.2711C51.684 76.2773 51.676 76.2863 51.671 76.2968C51.6417 76.3661 51.6392 76.4438 51.664 76.5148L51.666 76.5198C51.6069 76.5441 51.5563 76.5853 51.5207 76.6384C51.4851 76.6915 51.465 76.7539 51.465 76.8178ZM52.478 76.3598H52.476C52.4491 76.3721 52.4238 76.3879 52.401 76.4068L52.4 76.4088C52.3637 76.4385 52.3343 76.4759 52.3141 76.5182C52.2939 76.5606 52.2833 76.6069 52.283 76.6538C52.2831 76.7119 52.2989 76.7688 52.3287 76.8185C52.3585 76.8683 52.4013 76.909 52.4524 76.9364C52.5036 76.9638 52.5612 76.9769 52.6191 76.9742C52.6771 76.9714 52.7332 76.953 52.7815 76.921C52.8299 76.8889 52.8686 76.8443 52.8937 76.792C52.9187 76.7396 52.929 76.6815 52.9237 76.6237C52.9183 76.5659 52.8973 76.5107 52.8631 76.4639C52.8288 76.4171 52.7825 76.3804 52.729 76.3578C52.727 76.3578 52.725 76.3579 52.723 76.3559C52.7054 76.3493 52.6874 76.3439 52.669 76.3398L52.662 76.3378C52.6455 76.3347 52.6288 76.3327 52.612 76.3318H52.605L52.603 76.3258C52.6029 76.3223 52.6018 76.3189 52.6 76.3158C52.574 76.2548 52.596 76.1928 52.6 76.1798C52.6063 76.1652 52.6066 76.1487 52.601 76.1339C52.5954 76.119 52.5843 76.1068 52.57 76.0998C52.5553 76.0933 52.5386 76.0928 52.5235 76.0984C52.5083 76.104 52.496 76.1153 52.489 76.1298C52.484 76.1398 52.443 76.2388 52.482 76.3468L52.485 76.3559L52.481 76.3568L52.478 76.3598ZM53.127 76.4968C53.127 76.5601 53.1458 76.622 53.181 76.6746C53.2161 76.7273 53.2661 76.7683 53.3246 76.7925C53.3831 76.8167 53.4474 76.823 53.5095 76.8107C53.5715 76.7984 53.6286 76.7679 53.6733 76.7231C53.7181 76.6784 53.7485 76.6213 53.7609 76.5593C53.7732 76.4972 53.7669 76.4329 53.7427 76.3744C53.7185 76.3159 53.6774 76.2659 53.6248 76.2308C53.5722 76.1956 53.5103 76.1768 53.447 76.1768C53.4466 76.1734 53.4456 76.169 53.444 76.1658C53.4267 76.1222 53.4267 76.0735 53.444 76.0298C53.4482 76.0205 53.4499 76.0102 53.4491 76C53.4483 75.9898 53.445 75.9799 53.4394 75.9713C53.4339 75.9627 53.4263 75.9556 53.4173 75.9506C53.4084 75.9456 53.3983 75.943 53.388 75.9428C53.3761 75.9429 53.3644 75.9464 53.3545 75.9529C53.3445 75.9595 53.3367 75.9689 53.332 75.9799C53.327 75.9899 53.286 76.0878 53.325 76.1978V76.1998C53.2663 76.2242 53.2162 76.2654 53.181 76.3183C53.1457 76.3712 53.1269 76.4333 53.127 76.4968ZM54.101 75.9428C54.0777 75.954 54.0558 75.9681 54.036 75.9848L54.029 75.9898C53.9786 76.0319 53.9423 76.0885 53.9253 76.152C53.9082 76.2154 53.9112 76.2826 53.9337 76.3443C53.9562 76.406 53.9973 76.4593 54.0512 76.4968C54.1051 76.5343 54.1693 76.5542 54.235 76.5538C54.3202 76.555 54.4023 76.5224 54.4633 76.463C54.5244 76.4037 54.5593 76.3225 54.5605 76.2374C54.5617 76.1522 54.5291 76.0701 54.4697 76.009C54.4103 75.948 54.3292 75.913 54.244 75.9118L54.237 75.9109L54.235 75.9038L54.232 75.8938C54.2152 75.8504 54.2152 75.8023 54.232 75.7589C54.2386 75.7441 54.2391 75.7274 54.2335 75.7123C54.2279 75.6971 54.2166 75.6848 54.202 75.6778C54.1936 75.674 54.1844 75.6719 54.175 75.6718C54.1633 75.6719 54.1517 75.6755 54.142 75.6821C54.1322 75.6886 54.1246 75.698 54.12 75.7088C54.0914 75.7783 54.0889 75.8557 54.113 75.9268L54.116 75.9338L54.108 75.9379L54.101 75.9428ZM54.68 75.9809C54.6798 76.0444 54.6985 76.1065 54.7337 76.1595C54.7688 76.2124 54.8189 76.2537 54.8775 76.2781C54.9361 76.3026 55.0007 76.3091 55.063 76.2968C55.1254 76.2845 55.1827 76.254 55.2277 76.2092C55.2727 76.1643 55.3033 76.1071 55.3158 76.0448C55.3283 75.9825 55.322 75.918 55.2977 75.8592C55.2734 75.8005 55.2323 75.7503 55.1795 75.715C55.1267 75.6797 55.0646 75.6609 55.001 75.6609V75.6588L54.997 75.6488C54.969 75.5818 54.997 75.5158 54.997 75.5128C55.0012 75.5035 55.0029 75.4932 55.0021 75.483C55.0013 75.4728 54.998 75.4629 54.9924 75.4543C54.9869 75.4457 54.9793 75.4386 54.9703 75.4336C54.9614 75.4286 54.9513 75.426 54.941 75.4258C54.9293 75.4259 54.9178 75.4295 54.908 75.4361C54.8982 75.4426 54.8906 75.452 54.886 75.4628C54.8571 75.5318 54.8543 75.6089 54.878 75.6798L54.88 75.6838C54.8211 75.708 54.7706 75.7491 54.735 75.802C54.6994 75.8549 54.6802 75.9171 54.68 75.9809ZM55.466 75.7468C55.4724 75.8273 55.5089 75.9025 55.5682 75.9573C55.6275 76.0121 55.7053 76.0425 55.786 76.0425C55.8668 76.0425 55.9446 76.0121 56.0039 75.9573C56.0632 75.9025 56.0997 75.8273 56.106 75.7468C56.1061 75.6633 56.0735 75.5831 56.0152 75.5234C55.9569 75.4636 55.8775 75.4289 55.794 75.4268H55.792L55.787 75.4258L55.786 75.4198C55.7855 75.4164 55.7845 75.413 55.783 75.4099C55.754 75.3439 55.782 75.2778 55.783 75.2748C55.7896 75.2601 55.7901 75.2434 55.7845 75.2283C55.7789 75.2131 55.7676 75.2008 55.753 75.1938C55.7458 75.1905 55.7379 75.1887 55.7299 75.1885C55.7219 75.1883 55.714 75.1896 55.7065 75.1925C55.6991 75.1954 55.6923 75.1998 55.6865 75.2053C55.6808 75.2109 55.6762 75.2175 55.673 75.2248C55.6432 75.2935 55.6396 75.3707 55.663 75.4418L55.667 75.4498C55.6079 75.4738 55.5572 75.5149 55.5214 75.5678C55.4856 75.6207 55.4663 75.683 55.466 75.7468ZM56.482 75.1768C56.4569 75.1889 56.4334 75.204 56.412 75.2218L56.409 75.2238C56.373 75.2537 56.3439 75.2911 56.3238 75.3335C56.3038 75.3758 56.2933 75.422 56.293 75.4688C56.2994 75.5493 56.3359 75.6245 56.3952 75.6793C56.4545 75.7341 56.5323 75.7645 56.613 75.7645C56.6938 75.7645 56.7716 75.7341 56.8309 75.6793C56.8902 75.6245 56.9267 75.5493 56.933 75.4688C56.9329 75.4126 56.918 75.3574 56.8897 75.3087C56.8614 75.2601 56.8209 75.2198 56.772 75.1918L56.738 75.1718H56.736C56.6999 75.1567 56.6612 75.1486 56.622 75.1479L56.614 75.1469L56.612 75.1408C56.5916 75.0949 56.5901 75.0428 56.608 74.9958C56.6128 74.9816 56.6122 74.9661 56.6062 74.9523C56.6003 74.9386 56.5895 74.9275 56.5759 74.9211C56.5622 74.9148 56.5468 74.9138 56.5324 74.9181C56.5181 74.9225 56.5058 74.932 56.498 74.9448C56.4693 75.0142 56.4665 75.0916 56.49 75.1628L56.493 75.1708L56.486 75.1739L56.482 75.1768Z" fill="white"/>
<path d="M62.718 75.16C62.986 75.457 63.317 75.826 63.672 76.142C64.554 76.982 65.359 77.025 65.512 77.025C66.04 77.025 66.468 76.795 66.704 76.632C66.6725 76.559 66.6401 76.4863 66.607 76.414C66.411 76.554 66.008 76.79 65.512 76.79C65.427 76.79 64.668 76.768 63.83 75.97C63.4997 75.6656 63.1866 75.3431 62.892 75.004C62.759 74.8524 62.6216 74.7046 62.48 74.561C62.1708 74.2621 61.8126 74.0186 61.421 73.841C61.281 73.86 61.133 73.883 60.98 73.911C61.38 74.056 61.884 74.302 62.316 74.729C62.43 74.84 62.564 74.989 62.718 75.16ZM50.032 72.406C50.084 72.406 50.14 72.408 50.194 72.41L50.237 72.412L50.351 72.414C50.4041 72.415 50.4573 72.4117 50.51 72.404L50.555 72.395C51.083 72.302 51.629 72.205 51.849 71.835C52.021 71.544 51.979 71.135 51.728 70.685L51.698 70.633C51.612 70.486 51.453 70.211 51.685 70.048C51.832 69.945 52.01 69.812 52.089 69.753C52.0673 69.6731 52.0721 69.5882 52.1028 69.5112C52.1334 69.4342 52.1882 69.3692 52.259 69.326C52.415 69.224 52.537 69.235 52.639 69.239C52.7 69.243 52.759 69.249 52.817 69.216C52.8614 69.1874 52.9122 69.1702 52.965 69.166C53.041 69.166 53.065 69.219 53.071 69.234C53.091 69.285 53.066 69.347 53.01 69.394C52.9825 69.416 52.9545 69.4374 52.926 69.458C52.797 69.558 52.405 69.858 52.354 69.961C52.314 70.041 52.26 70.238 52.31 70.329C52.324 70.355 52.347 70.369 52.384 70.372C52.848 70.347 53.167 69.927 53.202 69.879C53.29 69.73 53.321 69.655 53.375 69.516C53.401 69.452 53.442 69.352 53.5 69.217C53.527 69.155 53.577 69.062 53.647 68.941C53.5083 68.9003 53.3645 68.8801 53.22 68.881C53.096 68.881 52.998 68.895 52.945 68.902L52.918 68.906C52.116 69.05 51.599 69.726 51.594 69.733C51.453 69.927 51.303 70.026 51.149 70.026C51.0571 70.0256 50.969 69.9898 50.903 69.926C50.842 69.866 50.728 69.757 50.891 69.409C51.028 69.117 50.973 68.7 50.766 68.46C50.638 68.311 50.381 68.29 50.239 68.29C50.158 68.29 50.101 68.296 50.09 68.297L50.064 68.3C49.926 68.333 49.548 68.47 49.135 69.033C48.9373 69.3002 48.7249 69.5563 48.499 69.8C48.36 69.985 48.166 70.139 47.993 70.275C47.805 70.423 47.643 70.551 47.619 70.665L47.616 70.677C47.606 70.73 47.59 70.811 47.531 70.861C47.464 70.917 47.406 70.918 47.35 70.919C47.2481 70.919 47.1474 70.9412 47.055 70.984C46.863 71.062 46.765 71.239 46.752 71.522C46.753 71.705 46.815 71.9 46.936 72.102C47.024 72.248 47.134 72.377 47.262 72.484C47.3506 72.5497 47.4587 72.5835 47.569 72.58C47.704 72.58 47.856 72.54 47.989 72.471C48.25 72.335 48.316 72.143 48.355 72.029C48.367 71.996 48.375 71.969 48.387 71.948C48.41 71.898 48.543 71.643 48.743 71.643C48.829 71.643 48.91 71.689 48.983 71.779C49.029 71.837 49.048 71.899 49.04 71.966C49.025 72.096 48.91 72.198 48.825 72.264C48.814 72.273 48.755 72.321 48.748 72.385C48.743 72.421 48.756 72.457 48.785 72.493C48.799 72.516 48.851 72.597 49.007 72.597C49.027 72.5967 49.047 72.5954 49.067 72.593C49.192 72.579 49.315 72.544 49.433 72.513C49.549 72.48 49.687 72.441 49.819 72.426C49.8888 72.41 49.9604 72.4033 50.032 72.406ZM49.375 70.057C49.238 70.0241 49.1091 69.9639 48.996 69.88L48.956 69.85L48.932 69.894L48.884 69.981C48.879 69.992 48.867 69.997 48.844 69.998C48.8365 69.9957 48.8301 69.9909 48.8258 69.9843C48.8216 69.9777 48.8199 69.9698 48.821 69.962C48.849 69.754 48.92 69.557 49.032 69.377C49.0907 69.2825 49.1647 69.1984 49.251 69.128C49.3405 69.0558 49.445 69.0045 49.557 68.978C49.651 68.951 49.749 68.937 49.849 68.937H49.883C49.99 68.942 50.098 68.96 50.202 68.993C50.251 69.009 50.299 69.026 50.348 69.045L50.505 69.116C50.543 69.135 50.582 69.154 50.62 69.169C50.6602 69.1891 50.7041 69.201 50.749 69.204C50.764 69.204 50.779 69.216 50.781 69.232C50.7826 69.2394 50.7815 69.2472 50.7778 69.2538C50.7741 69.2605 50.7681 69.2655 50.761 69.268C50.7134 69.2857 50.6625 69.2926 50.612 69.288L50.592 69.286L50.578 69.301C50.5391 69.3448 50.5067 69.394 50.482 69.447L50.451 69.507C50.425 69.557 50.394 69.619 50.357 69.677C50.3074 69.7569 50.2457 69.8284 50.174 69.889C50.0992 69.9495 50.0146 69.9969 49.924 70.029C49.7476 70.0918 49.5568 70.1015 49.375 70.057Z" fill="white"/>
<path d="M50.212 69.5767L50.292 69.4657V69.4637C50.3139 69.4315 50.3366 69.3998 50.36 69.3687C50.3827 69.3385 50.4075 69.3097 50.434 69.2827L50.361 69.2667C50.2907 69.2506 50.22 69.2362 50.149 69.2237C50.0516 69.2069 49.9527 69.2009 49.854 69.2057C49.8964 69.2662 49.9214 69.337 49.9264 69.4106C49.9313 69.4843 49.916 69.5578 49.8821 69.6234C49.8482 69.6889 49.797 69.7439 49.734 69.7824C49.6711 69.8209 49.5988 69.8414 49.525 69.8417C49.4445 69.8417 49.3659 69.8176 49.2992 69.7725C49.2326 69.7275 49.181 69.6634 49.151 69.5887C49.111 69.6427 49.071 69.7017 49.031 69.7677C49.171 69.8367 49.291 69.8747 49.404 69.8897C49.57 69.9097 49.724 69.8947 49.857 69.8437C49.997 69.7937 50.117 69.7037 50.212 69.5767Z" fill="white"/>
</g>
<defs>
<clipPath id="clip0_501_1939">
<rect width="113" height="97" fill="white"/>
</clipPath>
</defs>
</svg>
